<svg width="15" height="16" viewBox="0 0 15 16" fill="none" xmlns="http://www.w3.org/2000/svg">
<path d="M11.7164 9.70488C11.4126 9.38575 11.0462 9.21512 10.6578 9.21512C10.2726 9.21512 9.90306 9.38259 9.58675 9.70172L8.5971 10.697C8.51568 10.6528 8.43425 10.6117 8.35596 10.5706C8.24321 10.5138 8.13673 10.46 8.04591 10.4032C7.1189 9.80915 6.27645 9.03502 5.46845 8.03339C5.07698 7.53415 4.81391 7.11391 4.62287 6.68735C4.87968 6.45037 5.11769 6.20391 5.34945 5.96693C5.43714 5.87846 5.52483 5.78683 5.61251 5.69836C6.27019 5.03482 6.27019 4.17538 5.61251 3.51184L4.75754 2.64923C4.66045 2.55128 4.56024 2.45017 4.46628 2.34906C4.27838 2.15316 4.08107 1.95094 3.87751 1.76135C3.57372 1.45802 3.21044 1.29688 2.82836 1.29688C2.44628 1.29688 2.07673 1.45802 1.76355 1.76135C1.76042 1.76451 1.76042 1.76451 1.75729 1.76767L0.692484 2.85146C0.291615 3.2559 0.0629954 3.74881 0.0128868 4.32072C-0.062276 5.24336 0.207057 6.1028 0.413755 6.66523C0.921104 8.04603 1.679 9.32571 2.80957 10.697C4.18129 12.3496 5.83174 13.6545 7.71707 14.574C8.43738 14.9184 9.39884 15.326 10.473 15.3955C10.5388 15.3987 10.6077 15.4018 10.6703 15.4018C11.3938 15.4018 12.0014 15.1396 12.4774 14.6182C12.4805 14.6119 12.4868 14.6088 12.4899 14.6024C12.6528 14.4034 12.8407 14.2233 13.038 14.0305C13.1726 13.901 13.3104 13.7651 13.4451 13.6229C13.7552 13.2975 13.918 12.9183 13.918 12.5297C13.918 12.1379 13.752 11.7619 13.4357 11.4459L11.7164 9.70488ZM12.8375 13.0321C12.8344 13.0321 12.8344 13.0352 12.8375 13.0321C12.7154 13.1648 12.5901 13.2848 12.4555 13.4175C12.2519 13.6134 12.0452 13.8188 11.851 14.0495C11.5347 14.3907 11.162 14.5519 10.6735 14.5519C10.6265 14.5519 10.5764 14.5519 10.5294 14.5487C9.59927 14.4887 8.7349 14.1222 8.08662 13.8093C6.31403 12.9436 4.75754 11.7145 3.46411 10.1567C2.39617 8.85807 1.68213 7.65738 1.20923 6.36822C0.917972 5.58145 0.811491 4.96846 0.858468 4.39024C0.889786 4.02055 1.03072 3.71406 1.29065 3.4518L2.35859 2.37434C2.51205 2.22899 2.6749 2.15 2.83462 2.15C3.03193 2.15 3.19165 2.27007 3.29186 2.37118C3.295 2.37434 3.29813 2.3775 3.30126 2.38066C3.4923 2.56076 3.67394 2.74718 3.86498 2.94625C3.96207 3.04736 4.06228 3.14847 4.1625 3.25274L5.01748 4.11534C5.34945 4.45027 5.34945 4.75992 5.01748 5.09485C4.92665 5.18648 4.83896 5.27812 4.74814 5.36659C4.48507 5.63832 4.23453 5.8911 3.96207 6.13756C3.9558 6.14388 3.94954 6.14704 3.94641 6.15336C3.67707 6.42509 3.72718 6.69051 3.78355 6.87061C3.78669 6.88009 3.78982 6.88957 3.79295 6.89905C4.01531 7.44252 4.32848 7.95439 4.80451 8.56422L4.80765 8.56738C5.67202 9.64168 6.58337 10.479 7.58867 11.1204C7.71707 11.2026 7.84861 11.2689 7.97388 11.3321C8.08662 11.389 8.1931 11.4427 8.28393 11.4996C8.29645 11.5059 8.30898 11.5154 8.32151 11.5217C8.42799 11.5754 8.5282 11.6007 8.63155 11.6007C8.89149 11.6007 9.05434 11.4364 9.10758 11.3827L10.1787 10.3021C10.2851 10.1946 10.4543 10.0651 10.6516 10.0651C10.8457 10.0651 11.0054 10.1883 11.1025 10.2957C11.1057 10.2989 11.1057 10.2989 11.1088 10.3021L12.8344 12.0431C13.157 12.3654 13.157 12.6971 12.8375 13.0321Z" fill="#46AADC"/>
<path d="M8.00829 3.99059C8.82883 4.1296 9.5742 4.52134 10.1692 5.12159C10.7643 5.72185 11.1495 6.47374 11.2904 7.30146C11.3249 7.50996 11.5034 7.65529 11.707 7.65529C11.732 7.65529 11.7539 7.65213 11.779 7.64897C12.0108 7.61106 12.1642 7.38991 12.1266 7.15613C11.9575 6.15466 11.4877 5.24164 10.7706 4.51818C10.0534 3.79472 9.14828 3.32084 8.15549 3.15024C7.92373 3.11233 7.70764 3.26713 7.66692 3.49776C7.62621 3.72838 7.77654 3.95268 8.00829 3.99059Z" fill="#46AADC"/>
<path d="M14.8105 7.03255C14.5318 5.38297 13.7614 3.88192 12.5776 2.6874C11.3937 1.49288 9.90614 0.715488 8.27136 0.434238C8.04274 0.393157 7.82664 0.551163 7.78593 0.781851C7.74835 1.0157 7.90181 1.23375 8.13356 1.27483C9.59297 1.52448 10.924 2.22286 11.9825 3.28782C13.0411 4.35594 13.73 5.69899 13.9775 7.1716C14.0119 7.38017 14.1904 7.52553 14.394 7.52553C14.419 7.52553 14.441 7.52237 14.466 7.51921C14.6946 7.48445 14.8512 7.26324 14.8105 7.03255Z" fill="#46AADC"/>
</svg>
