<svg width="29" height="31" viewBox="0 0 29 31" fill="none" xmlns="http://www.w3.org/2000/svg">
<path d="M22.0478 20.351C21.1003 19.4073 19.9175 19.4073 18.9761 20.351C18.258 21.0695 17.5399 21.788 16.8339 22.5186C16.6407 22.7195 16.4778 22.7622 16.2425 22.6282C15.7778 22.3725 15.283 22.1655 14.8364 21.8854C12.7544 20.5641 11.0104 18.8654 9.46557 16.9535C8.69917 16.0036 8.01726 14.9868 7.54053 13.8421C7.44397 13.6108 7.46208 13.4585 7.64915 13.2698C8.36727 12.5696 9.06729 11.8511 9.77334 11.1326C10.757 10.1341 10.757 8.96504 9.7673 7.9604C9.20608 7.38806 8.64486 6.82789 8.08364 6.25555C7.50432 5.67103 6.93103 5.08042 6.34567 4.50199C5.39823 3.57041 4.21545 3.57041 3.27405 4.50808C2.54989 5.22655 1.85591 5.96329 1.11968 6.66958C0.437772 7.32108 0.0937981 8.11871 0.0213825 9.05029C-0.0932753 10.5664 0.274837 11.9972 0.793815 13.3916C1.85591 16.2776 3.47319 18.841 5.43444 21.1913C8.08364 24.3696 11.2458 26.8842 14.945 28.6987C16.6106 29.5146 18.3365 30.1417 20.2132 30.2452C21.5047 30.3183 22.6271 29.9895 23.5263 28.9727C24.1418 28.2786 24.8358 27.6453 25.4875 26.9817C26.453 25.9953 26.4591 24.8019 25.4996 23.8277C24.353 22.6647 23.2004 21.5079 22.0478 20.351Z" fill="white"/>
<path d="M20.8952 15.4989L23.122 15.1153C22.7719 13.0512 21.8064 11.182 20.34 9.69633C18.7891 8.13152 16.8278 7.14514 14.6674 6.8407L14.3536 9.09963C16.0252 9.33709 17.546 10.0982 18.7468 11.3098C19.8814 12.4545 20.6236 13.9037 20.8952 15.4989Z" fill="white"/>
<path d="M24.3771 5.73254C21.8064 3.13873 18.5537 1.50085 14.9631 0.995483L14.6493 3.25441C17.7511 3.6928 20.5632 5.11148 22.784 7.34606C24.8901 9.47103 26.272 12.1562 26.7729 15.1092L28.9996 14.7256C28.4143 11.3037 26.8151 8.19848 24.3771 5.73254Z" fill="white"/>
</svg>
