<svg width="16" height="13" viewBox="0 0 16 13" fill="none" xmlns="http://www.w3.org/2000/svg">
<path d="M13.4946 0.427734H1.87964C0.842816 0.427734 0 1.27812 0 2.32426V10.334C0 11.3801 0.842816 12.2305 1.87964 12.2305H13.4914C14.5282 12.2305 15.3711 11.3801 15.3711 10.334V2.32747C15.3742 1.28133 14.5314 0.427734 13.4946 0.427734ZM14.5155 10.334C14.5155 10.902 14.0575 11.3641 13.4946 11.3641H1.87964C1.3167 11.3641 0.858719 10.902 0.858719 10.334V2.32747C0.858719 1.75948 1.3167 1.29738 1.87964 1.29738H13.4914C14.0544 1.29738 14.5123 1.75948 14.5123 2.32747V10.334H14.5155Z" fill="#46AADC"/>
<path d="M9.694 6.22794L13.4533 2.82627C13.6282 2.66581 13.6441 2.39303 13.4851 2.21332C13.3261 2.03682 13.0557 2.02077 12.8776 2.18123L7.69351 6.87619L6.68213 5.96479C6.67895 5.96158 6.67577 5.95837 6.67577 5.95517C6.6535 5.9327 6.63124 5.91345 6.6058 5.89419L2.49031 2.17802C2.3122 2.01756 2.04186 2.03361 1.88284 2.21332C1.72382 2.39303 1.73972 2.66581 1.91783 2.82627L5.72163 6.25682L1.93373 9.835C1.76199 9.99867 1.75244 10.2714 1.91465 10.4479C2.00052 10.5378 2.11501 10.5859 2.22951 10.5859C2.33447 10.5859 2.43942 10.5474 2.52211 10.4704L6.36726 6.84088L7.41045 7.78116C7.49314 7.85497 7.59491 7.89027 7.69669 7.89027C7.79846 7.89027 7.90342 7.85176 7.98293 7.77795L9.05474 6.80879L12.8776 10.4736C12.9603 10.5538 13.0685 10.5924 13.1734 10.5924C13.2879 10.5924 13.3992 10.5474 13.4851 10.4576C13.6473 10.2843 13.6409 10.0083 13.4692 9.84463L9.694 6.22794Z" fill="#46AADC"/>
</svg>
