<svg width="13" height="17" viewBox="0 0 13 17" fill="none" xmlns="http://www.w3.org/2000/svg">
<path d="M6.23875 16.9182C6.11292 16.9182 5.99277 16.8662 5.90562 16.7741C5.66479 16.5155 0 10.4188 0 7.05277C0 3.58165 2.79862 0.757812 6.23875 0.757812C9.67837 0.757812 12.4775 3.58165 12.4775 7.05277C12.4775 10.4193 6.81322 16.516 6.57188 16.7741C6.48525 16.8662 6.36458 16.9182 6.23875 16.9182ZM6.23875 1.68088C3.30348 1.68088 0.91534 4.09053 0.91534 7.05225C0.91534 9.38282 4.49058 13.8348 6.23875 15.7766C7.98744 13.8342 11.5622 9.38334 11.5622 7.05225C11.5627 4.09053 9.17403 1.68088 6.23875 1.68088Z" fill="#46AADC"/>
<path d="M6.23871 9.02268C4.78346 9.02268 3.59998 7.82823 3.59998 6.35949C3.59998 4.89127 4.78346 3.69629 6.23871 3.69629C7.69344 3.69629 8.87744 4.89127 8.87744 6.35949C8.87744 7.82823 7.69396 9.02268 6.23871 9.02268ZM6.23871 4.62011C5.28779 4.62011 4.51479 5.40028 4.51479 6.35949C4.51479 7.31922 5.28779 8.09939 6.23871 8.09939C7.18911 8.09939 7.96211 7.31922 7.96211 6.35949C7.96211 5.40028 7.18911 4.62011 6.23871 4.62011Z" fill="#46AADC"/>
</svg>
