<svg width="23" height="29" viewBox="0 0 23 29" fill="none" xmlns="http://www.w3.org/2000/svg">
<path d="M11.4995 0C5.61304 0 0.823486 4.78956 0.823486 10.6766C0.823486 12.2122 1.13778 13.6783 1.75718 15.0347C4.42649 20.8757 9.54429 27.0427 11.0496 28.7934C11.1624 28.9243 11.3268 28.9997 11.4998 28.9997C11.6729 28.9997 11.8373 28.9243 11.9501 28.7934C13.4548 27.043 18.5726 20.8763 21.2428 15.0347C21.8625 13.6783 22.1765 12.2122 22.1765 10.6766C22.1759 4.78956 17.3863 0 11.4995 0ZM11.4995 16.2221C8.44173 16.2221 5.95376 13.7341 5.95376 10.6763C5.95376 7.61824 8.44173 5.13027 11.4995 5.13027C14.5573 5.13027 17.0453 7.61824 17.0453 10.6763C17.0456 13.7341 14.5576 16.2221 11.4995 16.2221Z" fill="white"/>
</svg>
